# xmcd
#
# Track frame offsets:
#	150
#	10310
#	21922
#	32022
#	43097
#	55302
#	67567
#	78932
#	90912
#	102905
#	113307
#	125900
#
# Disc length: 1873 seconds
#
# Revision: 4
# Processed by: cddbd v1.5.1PL0 Copyright (c) Steve Scherf et al.
# Submitted via: audiograbber 1.83.01
#
DISCID=88074f0c
DTITLE=Bobby "Blue" Bland - The Best of Bobby Bland
DYEAR=1900
DGENRE=
TTITLE0=Poverty
TTITLE1=I Smell Trouble
TTITLE2=Someday
TTITLE3=I'll Take Care Of You
TTITLE4=I Pity The Fool
TTITLE5=Cry Cry Cry
TTITLE6=Turn On Your Love Light
TTITLE7=Call On Me
TTITLE8=Ain't Nothing You Can Do
TTITLE9=If You Could Read My Mind
TTITLE10=Farther Up The Road
TTITLE11=Stormy Monday
EXTD=
EXTT0=
EXTT1=
EXTT2=
EXTT3=
EXTT4=
EXTT5=
EXTT6=
EXTT7=
EXTT8=
EXTT9=
EXTT10=
EXTT11=
PLAYORDER=
